<?xml version="1.0" encoding="utf-8"?>
<!-- Generator: Adobe Illustrator 26.0.1, SVG Export Plug-In . SVG Version: 6.00 Build 0)  -->
<svg version="1.1" id="Layer_1" xmlns="http://www.w3.org/2000/svg" xmlns:xlink="http://www.w3.org/1999/xlink" x="0px" y="0px"
	 viewBox="0 0 60 60" style="enable-background:new 0 0 60 60;" xml:space="preserve">
<g>
	<path d="M57,54.19c-0.27,0.48-0.67,0.65-1.22,0.65c-17.19-0.01-34.38-0.01-51.58-0.01c-0.97,0-1.31-0.4-1.18-1.34
		c0.23-1.69,1.48-2.91,3.17-3.11c0.12-0.01,0.23-0.05,0.35-0.07c0.23-3.33,3.95-4.72,6.31-2.41c0-6.24,0-12.44,0-18.64
		c-0.04-0.04-0.08-0.08-0.12-0.12c-0.46,0.5-0.89,1.02-1.37,1.49c-1.18,1.14-2.79,1.21-3.94,0.19c-1.06-0.94-1.24-2.59-0.39-3.73
		c0.15-0.2,0.31-0.38,0.49-0.55c6.78-6.79,13.57-13.58,20.36-20.36c1.35-1.35,2.89-1.34,4.26,0.01C32.55,6.6,33,7,33.39,7.46
		c0.37,0.44,0.8,0.57,1.37,0.57c6.1-0.02,12.2-0.01,18.3-0.01c1.2,0,2.19,0.39,2.73,1.52c0.2,0.43,0.29,0.94,0.3,1.42
		c0.02,3.45,0.02,6.89,0.01,10.34c-0.01,1.85-1.12,2.94-2.97,2.94c-0.93,0-1.86,0-2.88,0c0.12,0.15,0.19,0.26,0.27,0.35
		c0.71,0.71,1.44,1.4,2.12,2.13c1.57,1.68,0.87,4.21-1.31,4.74c-0.89,0.22-1.72,0.04-2.41-0.57c-0.6-0.53-1.16-1.1-1.8-1.72
		c0,5.33,0,10.57,0,15.75c0.7,0.07,1.4,0.05,2.04,0.22c1.6,0.41,2.63,1.47,3.14,3.04c0.06,0.2,0.26,0.44,0.44,0.49
		c2.37,0.63,3.76,2.14,4.19,4.54c0.01,0.05,0.04,0.1,0.07,0.14C57,53.63,57,53.91,57,54.19z M23.68,53.01c0-0.23,0-0.44,0-0.65
		c0-4.11,0-8.23,0-12.34c0-1.13,0.25-1.38,1.35-1.38c3.31,0,6.61,0,9.92,0c1.1,0,1.35,0.26,1.35,1.38c0,4.11,0,8.23,0,12.34
		c0,0.21,0,0.41,0,0.65c1.26,0,2.46,0,3.69,0c0.47-1.75,1.54-2.92,3.3-3.44c0.09-0.03,0.18-0.15,0.2-0.24
		c0.12-0.58,0.22-1.16,0.33-1.74c-0.18,0.01-0.4,0.04-0.63,0.04c-1.6,0-3.2,0.01-4.8,0c-0.88,0-1.2-0.32-1.21-1.22
		c-0.01-1.58,0-3.16,0-4.75c0-0.93,0.3-1.23,1.23-1.24c1.58,0,3.16,0,4.75,0c0.94,0,1.23,0.29,1.23,1.23c0.01,1.46,0,2.92,0,4.38
		c0,0.18,0.02,0.36,0.03,0.55c0.73-0.41,0.89-0.98,0.88-1.73c-0.03-5.47-0.02-10.94-0.02-16.4c0-0.2,0-0.4,0-0.6
		c-10.24,0-20.39,0-30.57,0c-0.01,0.11-0.02,0.19-0.02,0.28c0,6.79,0,13.57-0.01,20.36c0,0.31,0.14,0.42,0.39,0.53
		c1.15,0.5,2.03,1.32,2.59,2.44c0.25,0.49,0.41,1.03,0.61,1.54C20.06,53.01,21.85,53.01,23.68,53.01z M41.69,22.43
		c3.76,0,7.52,0,11.29,0c1.04,0,1.31-0.27,1.31-1.31c0-3.32,0-6.64,0-9.97c0-1.08-0.26-1.34-1.33-1.34c-7.51,0-15.01,0-22.52,0
		c-1.08,0-1.35,0.27-1.35,1.34c0,3.32,0,6.64,0,9.97c0,1.04,0.28,1.31,1.32,1.31C34.17,22.43,37.93,22.43,41.69,22.43z M34.47,53.02
		c0-4.21,0-8.37,0-12.55c-3,0-5.96,0-8.94,0c0,4.2,0,8.37,0,12.55C28.52,53.02,31.47,53.02,34.47,53.02z M27.26,14.95
		c-3.69,3.69-7.39,7.39-11.03,11.03c9.15,0,18.4,0,27.81,0c-0.56-0.53-0.99-0.99-1.48-1.4c-0.22-0.18-0.54-0.34-0.81-0.34
		c-3.78-0.02-7.56-0.01-11.34-0.01c-2.05,0-3.12-1.07-3.12-3.11c0-1.9,0-3.8,0-5.69C27.28,15.24,27.27,15.05,27.26,14.95z
		 M31.31,8.01c-1.02-1.41-1.57-1.19-2.41-0.34C22.25,14.35,15.58,21,8.92,27.67c-0.17,0.17-0.35,0.35-0.48,0.56
		c-0.26,0.41-0.18,0.94,0.18,1.24c0.38,0.32,0.8,0.36,1.21,0.08c0.19-0.13,0.35-0.29,0.51-0.45c5.27-5.27,10.53-10.55,15.82-15.8
		c0.73-0.72,1.19-1.4,1.16-2.52c-0.05-1.68,1.11-2.71,2.8-2.76C30.51,8,30.89,8.01,31.31,8.01z M55.01,53.01
		c-0.22-1.32-1.52-2.47-2.95-2.63c-1.17-0.13-1.25-0.21-1.4-1.35c-0.19-1.44-1.59-2.47-3.04-2.25c-1.49,0.22-2.5,1.56-2.26,3.01
		c0.17,1.05-0.1,1.39-1.14,1.45c-1.1,0.07-2.14,0.89-2.25,1.77C46.31,53.01,50.66,53.01,55.01,53.01z M16.3,53.02
		c-0.21-1.33-1.53-2.53-2.99-2.62c-0.77-0.05-1.3-0.23-1.64-1.01c-0.3-0.67-0.98-0.93-1.73-0.82c-0.77,0.11-1.32,0.55-1.45,1.32
		c-0.07,0.42,0.04,0.89,0.13,1.33c0.11,0.51-0.05,1-0.51,1.11c-0.28,0.07-0.62,0.01-0.91-0.07C6.31,52,5.47,52.29,5.14,53.02
		C8.87,53.02,12.59,53.02,16.3,53.02z M44.77,24.23c1.21,1.2,2.3,2.3,3.39,3.39c0.58,0.58,1.16,1.18,1.76,1.75
		c0.51,0.48,1.14,0.46,1.53,0c0.37-0.44,0.33-0.97-0.16-1.46c-1.15-1.16-2.31-2.32-3.47-3.47c-0.09-0.09-0.23-0.2-0.35-0.2
		C46.63,24.23,45.78,24.23,44.77,24.23z M42.56,45.81c0-1.19,0-2.35,0-3.53c-1.2,0-2.36,0-3.53,0c0,1.2,0,2.36,0,3.53
		C40.23,45.81,41.37,45.81,42.56,45.81z"/>
	<path d="M19.23,40.44c0.81,0,1.62-0.01,2.42,0c0.82,0.01,1.14,0.33,1.14,1.16c0.01,1.62,0.01,3.23,0,4.85
		c0,0.85-0.33,1.19-1.17,1.19c-1.63,0.01-3.27,0.01-4.9,0c-0.79,0-1.13-0.33-1.13-1.12c-0.01-1.65-0.01-3.3,0-4.95
		c0.01-0.83,0.32-1.12,1.17-1.13C17.58,40.43,18.41,40.44,19.23,40.44z M17.43,42.27c0,1.21,0,2.36,0,3.53c1.2,0,2.36,0,3.53,0
		c0-1.2,0-2.36,0-3.53C19.76,42.27,18.61,42.27,17.43,42.27z"/>
	<path d="M36.52,16.12c1.37,1.79,0.45,3.88-1.2,4.36c-0.49,0.14-1.04,0.13-1.56,0.15c-0.61,0.02-1.23,0.02-1.84,0
		c-0.64-0.02-0.99-0.34-1-0.98c-0.02-2.35-0.02-4.71,0-7.06c0-0.62,0.33-0.94,0.96-0.95c0.91-0.02,1.83-0.04,2.74,0.01
		c2.19,0.13,3.29,2.41,2.08,4.24C36.64,15.96,36.58,16.03,36.52,16.12z M32.73,18.78c0.7,0,1.33,0.04,1.95-0.01
		c0.46-0.04,0.7-0.39,0.69-0.85c0-0.46-0.25-0.8-0.7-0.84c-0.64-0.06-1.28-0.01-1.94-0.01C32.73,17.66,32.73,18.22,32.73,18.78z
		 M32.74,13.46c0,0.6,0,1.16,0,1.71c0.69,0,1.33,0.05,1.97-0.02c0.46-0.05,0.68-0.42,0.66-0.87c-0.02-0.45-0.27-0.78-0.74-0.81
		C34.01,13.43,33.39,13.46,32.74,13.46z"/>
	<path d="M38.14,11.65c0.58,0,1.13,0,1.76,0c0,0.2,0,0.39,0,0.57c0,1.81,0,3.62,0,5.43c0,0.86,0.32,1.17,1.18,1.18
		c0.11,0,0.21,0,0.32,0c0.86-0.01,1.18-0.32,1.19-1.17c0.01-1.41,0-2.81,0-4.22c0-0.58,0-1.16,0-1.78c0.61,0,1.17,0,1.81,0
		c0,0.21,0,0.39,0,0.58c0,1.67-0.05,3.34,0.01,5.01c0.1,2.39-1.29,3.61-3.77,3.36c-1.5-0.15-2.51-1.22-2.53-2.73
		c-0.02-1.97-0.01-3.94,0-5.91C38.11,11.88,38.13,11.78,38.14,11.65z"/>
	<path d="M45.43,12.09c0.52-0.31,0.99-0.6,1.53-0.93c0.63,1.05,1.26,2.09,1.93,3.21c0.66-1.09,1.28-2.12,1.93-3.2
		c0.51,0.31,1,0.6,1.54,0.92c-0.6,1-1.14,2-1.78,2.93c-0.62,0.89-0.88,1.82-0.8,2.91c0.07,0.87,0.01,1.75,0.01,2.67
		c-0.61,0-1.17,0-1.8,0c0-1.15-0.02-2.29,0.01-3.43c0.01-0.53-0.11-0.98-0.39-1.43C46.88,14.55,46.17,13.34,45.43,12.09z"/>
	<path d="M26.43,48.51c0-0.63,0-1.18,0-1.77c0.28-0.02,0.54-0.03,0.82-0.04c0-0.58,0-1.14,0-1.74c-0.26-0.02-0.52-0.04-0.81-0.06
		c0-0.56,0-1.13,0-1.75c0.62,0,1.25-0.04,1.87,0.01c0.45,0.03,0.75,0.34,0.76,0.81c0.02,1.25,0.02,2.49,0,3.74
		c-0.01,0.49-0.33,0.78-0.82,0.8C27.65,48.53,27.06,48.51,26.43,48.51z"/>
</g>
</svg>
