<?xml version="1.0" encoding="utf-8"?>
<!-- Generator: Adobe Illustrator 26.0.1, SVG Export Plug-In . SVG Version: 6.00 Build 0)  -->
<svg version="1.1" id="Layer_1" xmlns="http://www.w3.org/2000/svg" xmlns:xlink="http://www.w3.org/1999/xlink" x="0px" y="0px"
	 viewBox="0 0 60 60" style="enable-background:new 0 0 60 60;" xml:space="preserve">
<g>
	<path d="M20.72,2.99c3.69,0,7.38,0,11.08,0c0.37,0.25,0.8,0.45,1.1,0.77c0.22,0.24,0.4,0.32,0.7,0.32c1.95-0.01,3.9-0.01,5.85,0
		c1.75,0,2.69,0.96,2.69,2.71c0,3.92,0.01,7.84-0.01,11.76c0,0.53,0.04,0.93,0.64,1.11c0.29,0.09,0.53,0.34,0.78,0.53
		c2.1,1.62,4.2,3.24,6.31,4.86c2.16,1.66,4.31,3.33,6.47,4.99c0.79,0.61,0.87,1.31,0.28,2.1c-0.22,0.3-0.47,0.57-0.67,0.88
		c-0.51,0.78-1.16,1.15-2.17,0.71c0,0.26,0,0.44,0,0.63c0,1.79,0.01,3.59-0.01,5.38c0,0.41,0.1,0.66,0.46,0.9
		c3.97,2.72,3.58,8.72-0.7,10.93c-2.93,1.51-6.48,0.56-8.31-2.22c-0.1-0.16-0.28-0.37-0.43-0.38c-0.85-0.04-1.71-0.02-2.63-0.02
		c0,0.25,0,0.43,0,0.62c0,1.62,0,3.23,0,4.85c-0.01,1.57-1,2.56-2.58,2.56c-11.32,0-22.64,0-33.96,0c-0.24,0-0.49-0.02-0.73-0.07
		C3.84,56.7,3.31,55.95,3,55C3,38.72,3,22.44,3,6.16c0.65-1.68,1.22-2.07,3.02-2.07c1.86,0,3.72,0,5.58-0.01
		c0.19,0,0.4-0.07,0.56-0.18c0.41-0.28,0.79-0.6,1.18-0.9c1.44,0,2.88,0,4.33,0c0.33,0.29,0.6,0.61,0.4,1.09
		c-0.19,0.48-0.61,0.5-1.06,0.5c-1-0.01-2,0.01-3-0.01c-0.38-0.01-0.55,0.12-0.55,0.51c0.01,1,0.01,2,0,3
		C13.46,8.47,13.62,8.6,14,8.6c5.73-0.01,11.45-0.01,17.18,0c0.43,0,0.54-0.17,0.53-0.57c-0.02-0.9-0.01-1.79-0.01-2.69
		c0-0.77,0-0.77-0.79-0.77c-3.21,0-6.43,0-9.64,0c-0.42,0-0.78-0.08-0.95-0.5C20.13,3.61,20.4,3.28,20.72,2.99z M39.1,48.99
		c0,1.14,0,2.23,0,3.32c0,1.2-0.45,1.65-1.66,1.65c-9.9,0-19.8,0-29.7,0c-1.21,0-1.68-0.47-1.68-1.7c0-7.19,0-14.38,0-21.57
		c0-0.18-0.02-0.36,0.03-0.52c0.1-0.4,0.37-0.64,0.8-0.62c0.43,0.02,0.68,0.26,0.74,0.68c0.03,0.19,0.01,0.39,0.01,0.58
		c0,6.98,0,13.96,0,20.94c0,0.2,0,0.4,0,0.6c10,0,19.91,0,29.84,0c0-1.13,0-2.22,0-3.37c-0.22,0-0.41,0-0.6,0c-1.9,0-3.8,0-5.7,0
		c-1.47,0-2.17-0.7-2.18-2.16c0-0.73,0-1.47,0-2.25c-0.26,0-0.45,0-0.64,0c-2.43,0-4.85,0-7.28,0c-0.16,0-0.32,0.01-0.47-0.01
		c-0.45-0.06-0.7-0.34-0.71-0.78c-0.01-0.42,0.24-0.69,0.66-0.78c0.15-0.03,0.32-0.02,0.47-0.02c2.44,0,4.89,0,7.33,0
		c0.19,0,0.38,0,0.65,0c0-0.44-0.02-0.84,0.01-1.24c0.03-0.43,0.29-0.68,0.72-0.7c0.45-0.02,0.73,0.21,0.82,0.65
		c0.03,0.17,0.03,0.35,0.03,0.53c0,1.53,0.01,3.06-0.01,4.59c-0.01,0.44,0.15,0.59,0.58,0.58c1.35-0.02,2.71-0.01,4.06-0.01
		c0.31,0,0.62,0,0.98,0c0-0.28,0-0.48,0-0.69c0-3.96,0-7.91,0-11.87c0-0.97,0.49-1.47,1.46-1.47c2.48-0.01,4.96-0.01,7.44,0
		c0.96,0,1.46,0.5,1.46,1.47c0.01,1.83,0,3.66,0,5.49c0,0.17,0,0.33,0,0.53c2.91-1.45,2.96-1.46,5.58-1.19
		c0.01-0.1,0.04-0.2,0.04-0.3c0-2.18,0.01-4.36-0.01-6.54c0-0.21-0.19-0.48-0.37-0.62c-3.32-2.58-6.65-5.13-9.96-7.71
		c-0.34-0.27-0.55-0.26-0.89,0c-3.32,2.58-6.64,5.14-9.98,7.7c-0.28,0.22-0.39,0.44-0.39,0.79c0.02,1.67,0.01,3.34,0,5.01
		c0,0.59-0.31,0.92-0.79,0.92c-0.49,0-0.77-0.32-0.79-0.91c-0.01-0.36,0-0.72,0-1.11c-0.29,0-0.48,0-0.68,0c-2.43,0-4.85,0-7.28,0
		c-0.16,0-0.32,0.01-0.47-0.01c-0.41-0.05-0.69-0.33-0.65-0.7c0.03-0.28,0.26-0.58,0.49-0.78c0.14-0.12,0.43-0.09,0.66-0.09
		c2.44-0.01,4.89,0,7.33,0c0.19,0,0.37-0.02,0.56-0.03c0-0.52,0-0.98,0-1.5c-0.98,0.43-1.62,0.05-2.13-0.73
		c-0.22-0.34-0.5-0.64-0.73-0.96c-0.5-0.7-0.4-1.41,0.27-1.95c0.34-0.28,0.69-0.54,1.03-0.8c-0.01-0.04-0.01-0.07-0.02-0.11
		c-0.19,0-0.37,0-0.56,0c-1.88,0-3.76,0-5.64,0c-0.16,0-0.32,0.01-0.47-0.01c-0.47-0.04-0.79-0.34-0.81-0.75
		c-0.02-0.43,0.3-0.77,0.79-0.82c0.17-0.02,0.35-0.01,0.53-0.01c2.64,0,5.27,0.01,7.91-0.01c0.29,0,0.63-0.12,0.86-0.29
		c2.39-1.82,4.77-3.66,7.15-5.49c0.28-0.22,0.38-0.45,0.38-0.79c-0.01-3.92-0.01-7.84-0.01-11.76c0-0.17-0.02-0.34-0.03-0.56
		c-1.37,0-2.7-0.01-4.03,0.01c-0.1,0-0.24,0.17-0.3,0.29c-0.37,0.78-0.98,1.17-1.84,1.17c-0.27,0-0.55,0-0.86,0c0,0.7,0,1.31,0,1.92
		c-0.01,1.62-0.99,2.59-2.6,2.59c-3.52,0-7.03,0-10.55,0c-1.6,0-2.59-1-2.6-2.6c0-0.63,0-1.25,0-1.92c-0.28,0-0.49-0.01-0.69,0
		c-0.94,0.04-1.62-0.34-2.02-1.22c-0.06-0.12-0.28-0.23-0.43-0.24c-0.67-0.03-1.34-0.01-2-0.01c-0.63,0-1.25,0-1.91,0
		c0,0.29,0,0.5,0,0.7c0,5.66,0,11.32,0,16.98c0,0.66-0.29,1.02-0.81,1c-0.49-0.01-0.77-0.36-0.77-0.99c0-1.25,0-2.5,0-3.75
		c0-4.64,0-9.28,0-13.93c0-1.1,0.51-1.6,1.62-1.61c0.39,0,0.77,0,1.16,0c1,0,1.99,0,3.01,0c0-0.51,0-0.96,0-1.46
		c-0.22,0-0.41,0-0.6,0c-1.78,0-3.55,0-5.33,0c-1.13,0-1.33,0.2-1.33,1.31c0,9.32,0,18.64,0,27.96c0,6.45,0,12.91,0,19.36
		c0,0.85,0.27,1.13,1.08,1.13c11.29,0,22.58,0,33.86,0c0.74,0,1.02-0.28,1.03-1.01c0-1.67,0-3.34,0-5.01c0-0.13-0.03-0.27-0.04-0.41
		C40.06,48.99,39.62,48.99,39.1,48.99z M37.83,34.96c0,4.17,0,8.27,0,12.39c2.18,0,4.33,0,6.48,0c-0.16-2.22-0.06-2.99,0.49-4.2
		c0.11-0.25,0.18-0.53,0.18-0.8C45,40.08,45,37.8,45,35.51c0-0.18,0-0.37,0-0.55C42.56,34.96,40.21,34.96,37.83,34.96z M50.58,50.71
		c2.67,0.01,4.84-2.16,4.84-4.82c-0.01-2.63-2.18-4.8-4.8-4.81c-2.66-0.01-4.83,2.16-4.83,4.83C45.79,48.56,47.93,50.7,50.58,50.71z
		 M55.35,31.22c-0.11-0.05-0.19-0.07-0.24-0.11c-4.29-3.3-8.57-6.61-12.86-9.91c-0.6-0.46-1.14-0.43-1.78,0.06
		c-4.22,3.25-8.44,6.5-12.66,9.75c-0.11,0.08-0.24,0.14-0.36,0.21c0.32,0.41,0.56,0.71,0.82,1.04c0.21-0.16,0.39-0.29,0.57-0.43
		c3.9-3.01,7.79-6.01,11.69-9.02c0.8-0.62,0.95-0.61,1.74,0c2.98,2.3,5.96,4.6,8.93,6.89c1.1,0.85,2.2,1.69,3.32,2.55
		C54.79,31.94,55.02,31.63,55.35,31.22z M28.86,10.22c-4.23,0-8.39,0-12.57,0c0,0.62,0,1.2,0,1.77c0,0.87,0.26,1.12,1.14,1.12
		c3.43,0,6.85,0,10.28,0c0.14,0,0.28,0.01,0.42-0.01c0.41-0.06,0.71-0.28,0.73-0.71C28.89,11.68,28.86,10.96,28.86,10.22z
		 M39.1,20.26c0.41-0.27,0.71-0.53,1.05-0.67c0.34-0.14,0.42-0.32,0.42-0.66c-0.01-4.04-0.01-8.08-0.01-12.13
		c0-0.88-0.25-1.14-1.12-1.14c-1.88,0-3.76,0-5.64,0c-0.17,0-0.33,0.02-0.5,0.03c0,0.5,0,0.93,0,1.43c0.21,0,0.4,0,0.59,0
		c1.18,0,2.36,0,3.53,0c1.19,0,1.67,0.47,1.67,1.65c0,2.92,0,5.84,0,8.75C39.1,18.41,39.1,19.28,39.1,20.26z"/>
	<path d="M16.85,20.73c0,0.49,0.01,0.98,0,1.47c-0.02,0.69-0.44,1.13-1.12,1.14c-1,0.02-2,0.02-3,0c-0.65-0.01-1.08-0.45-1.09-1.11
		c-0.02-1-0.02-2,0-3c0.01-0.64,0.4-1.08,1.04-1.11c1.03-0.04,2.07-0.04,3.11,0c0.66,0.02,1.04,0.47,1.07,1.14
		C16.86,19.75,16.85,20.24,16.85,20.73z M15.23,19.73c-0.69,0-1.34,0-1.98,0c0,0.7,0,1.35,0,2.01c0.68,0,1.32,0,1.98,0
		C15.23,21.06,15.23,20.4,15.23,19.73z"/>
	<path d="M16.85,36.13c0,0.47,0.01,0.95,0,1.42c-0.02,0.7-0.41,1.14-1.1,1.16c-1,0.03-2,0.03-3,0c-0.69-0.02-1.1-0.45-1.11-1.15
		c-0.02-0.98-0.02-1.97,0-2.95c0.01-0.69,0.44-1.12,1.13-1.13c0.98-0.02,1.97-0.02,2.95,0c0.69,0.01,1.11,0.43,1.13,1.12
		C16.86,35.11,16.85,35.62,16.85,36.13z M13.24,37.09c0.68,0,1.34,0,1.98,0c0-0.7,0-1.35,0-2.01c-0.68,0-1.32,0-1.98,0
		C13.24,35.77,13.24,36.43,13.24,37.09z"/>
	<path d="M16.85,28.44c0,0.49,0.02,0.98,0,1.47c-0.03,0.66-0.43,1.1-1.09,1.12c-1,0.03-2,0.03-3,0c-0.68-0.02-1.11-0.46-1.12-1.14
		c-0.02-0.98-0.02-1.97,0-2.95c0.01-0.68,0.44-1.13,1.12-1.14c1-0.02,2-0.02,3,0c0.65,0.02,1.07,0.46,1.09,1.12
		C16.86,27.42,16.85,27.93,16.85,28.44z M13.25,27.39c0,0.71,0,1.37,0,2.04c0.68,0,1.32,0,1.97,0c0-0.7,0-1.36,0-2.04
		C14.54,27.39,13.92,27.39,13.25,27.39z"/>
	<path d="M14.24,41.17c0.49,0,0.98-0.01,1.47,0c0.68,0.02,1.11,0.41,1.12,1.07c0.02,1.03,0.02,2.07,0,3.11
		c-0.01,0.6-0.4,1.01-0.99,1.02c-1.07,0.03-2.14,0.03-3.21,0c-0.59-0.02-0.98-0.44-0.99-1.03c-0.02-1.03-0.02-2.07,0-3.11
		c0.01-0.63,0.44-1.04,1.07-1.06C13.22,41.16,13.73,41.17,14.24,41.17z M15.24,42.79c-0.68,0-1.34,0-1.99,0c0,0.69,0,1.34,0,1.99
		c0.69,0,1.33,0,1.99,0C15.24,44.1,15.24,43.45,15.24,42.79z"/>
	<path d="M26.79,19.95c1.97,0,3.93,0,5.9,0c0.39,0,0.74,0.14,0.8,0.53c0.04,0.27-0.06,0.64-0.24,0.83
		c-0.16,0.17-0.51,0.21-0.77,0.21c-1.88,0.02-3.76,0.01-5.64,0.01c-1.91,0-3.83,0-5.74,0c-0.17,0-0.35,0.01-0.52-0.03
		c-0.44-0.09-0.69-0.38-0.65-0.82c0.03-0.43,0.3-0.71,0.76-0.72c0.49-0.01,0.98-0.01,1.47-0.01C23.7,19.95,25.24,19.95,26.79,19.95z
		"/>
	<path d="M50.17,46.45c0.73-0.92,1.38-1.75,2.03-2.57c0.41-0.52,0.86-0.62,1.26-0.29c0.38,0.31,0.38,0.76-0.01,1.25
		c-0.82,1.05-1.65,2.1-2.48,3.14c-0.41,0.51-0.88,0.54-1.35,0.09c-0.63-0.61-1.25-1.23-1.86-1.86c-0.41-0.42-0.43-0.86-0.08-1.21
		c0.35-0.34,0.79-0.31,1.2,0.1C49.31,45.53,49.71,45.97,50.17,46.45z"/>
</g>
</svg>
