<?xml version="1.0" encoding="utf-8"?>
<!-- Generator: Adobe Illustrator 26.0.1, SVG Export Plug-In . SVG Version: 6.00 Build 0)  -->
<svg version="1.1" id="Layer_1" xmlns="http://www.w3.org/2000/svg" xmlns:xlink="http://www.w3.org/1999/xlink" x="0px" y="0px"
	 viewBox="0 0 60 60" style="enable-background:new 0 0 60 60;" xml:space="preserve">
<path d="M46.56,49.36c-0.74,0-1.43,0-2.18,0c-0.37,1.03-0.76,2.11-1.15,3.2c-0.32,0.91-0.62,1.83-0.98,2.72
	c-0.11,0.27-0.37,0.57-0.63,0.66c-0.41,0.14-0.59-0.26-0.76-0.57c-0.37-0.72-0.76-1.42-1.12-2.14c-0.15-0.3-0.3-0.35-0.61-0.24
	c-0.78,0.27-1.57,0.5-2.35,0.74c-0.33,0.1-0.72,0.21-0.89-0.15c-0.12-0.24-0.11-0.62,0.01-0.87c0.8-1.77,1.65-3.52,2.48-5.28
	c0.08-0.17,0.15-0.35,0.02-0.35c-0.35-0.46-0.68-0.93-1.08-1.35c-0.12-0.13-0.4-0.16-0.61-0.16c-7.58-0.01-15.16-0.01-22.74-0.01
	c-2.28,0-4.56,0-6.84,0c-1.37,0-2.1-0.74-2.11-2.12c0-0.63-0.01-1.26,0-1.89c0.02-1.14,0.78-1.91,1.92-1.93c1.19-0.02,2.38,0,3.6,0
	c0-6.57,0-13.08,0-19.66c-0.18-0.01-0.36-0.02-0.55-0.02c-1.51,0-3.02,0.02-4.53-0.01c-1.55-0.03-2.47-1.57-1.65-2.79
	c0.23-0.34,0.62-0.62,0.99-0.83c4.88-2.69,9.77-5.36,14.66-8.04c2.27-1.25,4.56-2.48,6.82-3.74c1.38-0.77,2.72-0.77,4.1-0.01
	c7.2,3.96,14.4,7.92,21.62,11.84c1.42,0.77,1.41,2.42,0.51,3.08c-0.39,0.29-0.96,0.45-1.45,0.47c-1.44,0.06-2.88,0.02-4.31,0.02
	c-0.19,0-0.38,0-0.66,0c0,0.21,0,0.38,0,0.54c0,2.23,0.01,4.46-0.01,6.69c0,0.35,0.12,0.47,0.43,0.64c0.57,0.31,1.15,0.69,1.57,1.18
	c0.63,0.73,1.31,1.06,2.3,0.92c2.24-0.32,3.99,1.43,3.7,3.69c-0.13,0.98,0.16,1.72,0.97,2.33c1.79,1.38,1.81,3.79,0.03,5.19
	c-0.78,0.62-1.15,1.33-1,2.32c0.22,1.44-0.34,2.53-1.53,3.32c-0.06,0.04-0.11,0.08-0.2,0.15c0.07,0.16,0.14,0.32,0.21,0.47
	c0.83,1.76,1.66,3.52,2.49,5.27c0.16,0.33,0.34,0.71,0.01,0.95c-0.22,0.16-0.62,0.17-0.91,0.1c-0.76-0.18-1.52-0.42-2.26-0.69
	c-0.39-0.14-0.55-0.03-0.72,0.31c-0.36,0.74-0.73,1.48-1.15,2.18c-0.13,0.22-0.45,0.46-0.67,0.44c-0.22-0.02-0.51-0.31-0.6-0.54
	c-0.68-1.8-1.31-3.62-1.97-5.43C46.7,49.73,46.62,49.52,46.56,49.36z M24.88,39.55c3.28,0,6.52,0,9.81,0
	c-0.4-1.66,0.1-2.92,1.44-3.89c0.65-0.47,0.83-1.17,0.71-1.97c-0.35-2.35,1.43-4.15,3.78-3.81c0.91,0.13,1.56-0.19,2.17-0.87
	c0.44-0.49,1.01-0.92,1.6-1.23c0.35-0.18,0.44-0.34,0.44-0.69c-0.01-2.49-0.01-4.98,0-7.47c0-0.82,0.16-0.98,0.99-0.98
	c1.74,0,3.47,0,5.21,0c0.34,0,0.7-0.01,0.81-0.41c0.13-0.43-0.17-0.63-0.5-0.81c-7.13-3.9-14.27-7.8-21.38-11.73
	c-1.13-0.63-2.13-0.61-3.26,0.01c-6.27,3.47-12.56,6.9-18.85,10.34c-0.89,0.49-1.79,0.96-2.67,1.48C5,17.63,4.84,17.89,4.81,18.1
	c-0.02,0.15,0.18,0.37,0.33,0.47c0.15,0.09,0.37,0.08,0.56,0.08c1.7,0.01,3.4,0,5.1,0c0.89,0,1.02,0.13,1.02,1.04
	c0,6.42,0,12.84,0,19.26c0,0.2,0,0.4,0,0.59c1.11,0,2.13,0,3.15,0c0-4.53,0-9.01,0-13.51c-0.24,0-0.43,0.03-0.62-0.01
	c-0.36-0.06-0.62-0.3-0.53-0.65c0.06-0.23,0.34-0.41,0.55-0.59c0.06-0.05,0.2-0.01,0.31-0.01c3.49,0,6.98,0,10.47,0
	c0.11,0,0.21-0.01,0.32,0c0.36,0.04,0.58,0.24,0.59,0.62c0.01,0.38-0.21,0.58-0.57,0.63c-0.2,0.03-0.41,0.03-0.61,0.04
	C24.88,30.59,24.88,35.06,24.88,39.55z M40.93,45.82c1.31-0.02,2.18,0.54,2.89,1.46c0.9,1.17,2.37,1.19,3.25,0.01
	c0.9-1.19,2.04-1.63,3.49-1.43c1.42,0.2,2.47-0.88,2.26-2.29c-0.2-1.41,0.22-2.53,1.37-3.41c1.25-0.96,1.24-2.4-0.02-3.36
	c-1.12-0.85-1.54-1.95-1.36-3.32c0.21-1.55-0.84-2.59-2.39-2.36c-1.37,0.2-2.43-0.26-3.27-1.34c-1.01-1.31-2.4-1.3-3.43,0.02
	c-0.83,1.06-1.88,1.51-3.23,1.31c-1.6-0.24-2.65,0.84-2.41,2.44c0.19,1.3-0.2,2.4-1.27,3.13c-1.39,0.95-1.29,2.75-0.02,3.55
	c0.77,0.49,1.2,1.27,1.31,2.19c0.04,0.39-0.02,0.8-0.05,1.2c-0.12,1.37,0.9,2.38,2.26,2.23C40.57,45.85,40.81,45.84,40.93,45.82z
	 M36.75,44.28c0.05-0.46,0.06-0.85,0.13-1.22c0.19-0.93-0.98-2.24-2-2.23c-9.14,0.06-18.28,0.03-27.42,0.03c-0.16,0-0.32,0-0.47,0
	c-0.48,0-0.71,0.25-0.71,0.72c0,0.54,0,1.09,0,1.63c0,0.97,0.1,1.07,1.1,1.07c9.58,0,19.16,0,28.74,0
	C36.31,44.28,36.52,44.28,36.75,44.28z M16.32,26.07c-0.01,0.12-0.03,0.21-0.03,0.29c0,4.26,0,8.53-0.01,12.79
	c0,0.4,0.18,0.45,0.51,0.45c2.11-0.01,4.21,0,6.32-0.01c0.15,0,0.3-0.03,0.45-0.04c0-4.52,0-8.99,0-13.48
	C21.14,26.07,18.76,26.07,16.32,26.07z M53.31,52.09c-0.01-0.11,0.01-0.17-0.01-0.21c-0.7-1.49-1.4-2.98-2.12-4.46
	c-0.06-0.12-0.25-0.21-0.4-0.25c-1.22-0.27-2.2,0.04-2.91,1.14c-0.15,0.24-0.2,0.4-0.11,0.65c0.42,1.15,0.83,2.31,1.25,3.46
	c0.15,0.41,0.3,0.82,0.49,1.33c0.35-0.67,0.66-1.24,0.95-1.81c0.22-0.43,0.52-0.58,0.99-0.42C52.05,51.72,52.66,51.89,53.31,52.09z
	 M41.45,53.77c0.61-1.71,1.19-3.3,1.74-4.9c0.04-0.12,0.02-0.31-0.05-0.42c-0.68-1.04-1.57-1.61-2.88-1.31
	c-0.29,0.07-0.46,0.15-0.58,0.41c-0.63,1.37-1.28,2.72-1.92,4.08c-0.06,0.12-0.09,0.25-0.18,0.49c0.7-0.22,1.31-0.4,1.92-0.6
	c0.46-0.15,0.77-0.02,0.99,0.41C40.77,52.52,41.09,53.08,41.45,53.77z"/>
<path d="M35.6,24.7c-1.68,0-3.37,0-5.05,0c-0.78,0-0.93-0.16-0.94-0.91c0-1.44,0-2.88,0-4.31c0-0.63,0.18-0.83,0.81-0.83
	c3.45,0,6.91,0,10.36,0c0.64,0,0.84,0.2,0.84,0.86c0,1.44,0,2.88,0,4.31c0,0.69-0.19,0.88-0.87,0.88
	C39.03,24.71,37.32,24.7,35.6,24.7z M30.91,23.41c1.37,0,2.7,0,4.04,0c0-1.17,0-2.32,0-3.47c-1.36,0-2.69,0-4.04,0
	C30.91,21.1,30.91,22.23,30.91,23.41z M40.36,19.95c-1.4,0-2.74,0-4.08,0c0,1.17,0,2.3,0,3.45c1.37,0,2.7,0,4.06,0
	c0.01-0.14,0.02-0.24,0.02-0.35C40.36,22.04,40.36,21.02,40.36,19.95z"/>
<path d="M32.06,12.86c-0.01,2.07-1.69,3.73-3.77,3.71c-2.04-0.01-3.71-1.7-3.71-3.74c0-2.06,1.69-3.75,3.76-3.74
	C30.41,9.1,32.07,10.78,32.06,12.86z M30.79,12.86c0.01-1.38-1.08-2.49-2.45-2.5c-1.36-0.01-2.49,1.09-2.5,2.45
	c-0.01,1.36,1.1,2.49,2.46,2.5C29.68,15.32,30.79,14.23,30.79,12.86z"/>
<path d="M51.02,38.5c0,3.09-2.49,5.57-5.59,5.56c-3.06-0.01-5.55-2.49-5.57-5.55c-0.02-3.05,2.51-5.6,5.58-5.61
	C48.52,32.9,51.03,35.42,51.02,38.5z M49.76,38.5c0-2.38-1.94-4.32-4.31-4.32c-2.36,0-4.32,1.96-4.32,4.33
	c0,2.37,1.94,4.31,4.32,4.31C47.85,42.8,49.76,40.89,49.76,38.5z"/>
</svg>
