<?xml version="1.0" encoding="utf-8"?>
<!-- Generator: Adobe Illustrator 26.0.1, SVG Export Plug-In . SVG Version: 6.00 Build 0)  -->
<svg version="1.1" id="Layer_1" xmlns="http://www.w3.org/2000/svg" xmlns:xlink="http://www.w3.org/1999/xlink" x="0px" y="0px"
	 viewBox="0 0 60 60" style="enable-background:new 0 0 60 60;" xml:space="preserve">
<g>
	<path d="M57,55.67c-0.26,0.41-0.64,0.52-1.12,0.52c-17.24-0.01-34.48-0.01-51.71-0.01c-0.92,0-1.15-0.23-1.15-1.15
		c0-1.58,0-3.17,0-4.75c0-0.65,0.3-1.03,0.8-1.03c0.5,0.01,0.78,0.38,0.78,1.04c0,1.41,0,2.82,0,4.26c3.04,0,6.05,0,9.12,0
		c0.01-0.17,0.02-0.36,0.02-0.54c0-1.95,0.01-3.91-0.01-5.86c0-0.27-0.11-0.59-0.27-0.81c-0.74-1.03-1.52-2.03-2.27-3.04
		c-0.38-0.5-0.36-0.95,0.02-1.26c0.39-0.32,0.86-0.2,1.25,0.32c1.08,1.43,2.17,2.86,3.23,4.3c0.38,0.51,0.84,0.75,1.48,0.75
		c2.13-0.02,4.25,0,6.38-0.01c0.68,0,1.22-0.42,1.39-1.01c0.17-0.6-0.02-1.29-0.54-1.59c-0.3-0.18-0.69-0.27-1.04-0.28
		c-1.63-0.03-3.27-0.03-4.9,0c-0.53,0.01-0.89-0.18-1.2-0.6c-1.28-1.73-2.57-3.43-3.87-5.14c-0.16-0.21-0.34-0.41-0.55-0.56
		c-0.3-0.22-0.58-0.26-0.95-0.02c-1.75,1.09-3.55,1.11-5.33,0.07c-0.33-0.19-0.57-0.19-0.87-0.01c-0.72,0.44-1.09,1.08-1.09,1.92
		c0,1.62,0,3.24,0,4.86c0,0.14,0.01,0.28,0,0.42c-0.04,0.47-0.34,0.77-0.77,0.78c-0.45,0.01-0.8-0.3-0.8-0.79
		c-0.01-1.88-0.04-3.77,0.02-5.65c0.04-1.11,0.6-2.01,1.5-2.67c0.14-0.1,0.28-0.2,0.46-0.33c-0.86-1.2-0.93-2.56-0.9-3.94
		c0.02-1.09,0-2.18,0.01-3.27c0.02-2.07,1.35-3.4,3.41-3.41c1.14,0,2.28-0.01,3.43,0c1.9,0.02,3.25,1.36,3.27,3.26
		c0.02,1.5-0.01,2.99,0.01,4.49c0.01,0.99-0.28,1.9-0.71,2.64c0.58,0.67,1.14,1.27,1.64,1.92c1.02,1.32,2.03,2.66,3.01,4
		c0.25,0.34,0.51,0.46,0.92,0.45c0.84-0.03,1.68-0.01,2.59-0.01c0-0.82,0.07-1.59-0.01-2.35c-0.21-1.97,0.82-3.19,2.39-4.09
		c0.36-0.21,0.74-0.39,1.08-0.58c-0.55-2.32-0.3-4.65-0.26-6.96c0.03-1.5,1.45-2.73,3.03-2.76c2.04-0.04,4.08-0.02,6.11-0.01
		c0.61,0,0.91,0.3,0.92,0.92c0.01,2.32,0.02,4.65-0.02,6.97c-0.01,0.57-0.16,1.14-0.25,1.71c0.55,0.3,1.14,0.59,1.68,0.93
		c1.33,0.85,2.16,1.97,2.02,3.66c-0.07,0.82-0.01,1.65-0.01,2.55c1.03,0,2.03,0.01,3.02-0.02c0.14,0,0.31-0.21,0.42-0.35
		c1.15-1.51,2.28-3.04,3.44-4.54c0.37-0.48,0.82-0.9,1.29-1.41c-0.02-0.04-0.11-0.16-0.14-0.31c-0.2-0.74-0.51-1.48-0.55-2.23
		c-0.08-1.58-0.05-3.17-0.02-4.75c0.03-1.75,1.36-3.09,3.12-3.14c1.28-0.03,2.57-0.03,3.85,0c1.67,0.04,3.01,1.24,3.1,2.93
		c0.09,1.75,0.08,3.52-0.02,5.28c-0.05,0.81-0.42,1.61-0.65,2.41c-0.06,0-0.11,0-0.17,0c0.19,0.14,0.38,0.29,0.57,0.43
		c0.74,0.57,1.1,1.38,1.39,2.24c0,2.08,0,4.16,0,6.23c-0.23,0.4-0.55,0.67-1.03,0.51c-0.48-0.16-0.55-0.57-0.55-1.02
		c0.01-1.67,0.01-3.34,0-5.02c0-0.87-0.4-1.51-1.15-1.94c-0.27-0.15-0.49-0.15-0.77,0.02c-1.79,1.06-3.6,1.05-5.37-0.05
		c-0.35-0.22-0.62-0.21-0.91,0c-0.22,0.16-0.42,0.37-0.59,0.59c-1.3,1.71-2.59,3.42-3.87,5.14c-0.31,0.42-0.67,0.61-1.2,0.6
		c-1.69-0.02-3.37-0.02-5.06,0c-0.96,0.01-1.58,0.74-1.46,1.66c0.1,0.74,0.68,1.22,1.53,1.23c2.04,0.01,4.08-0.02,6.11,0.02
		c0.77,0.01,1.3-0.27,1.74-0.87c1.02-1.39,2.06-2.76,3.1-4.14c0.42-0.56,0.88-0.69,1.28-0.37c0.4,0.32,0.39,0.77-0.04,1.34
		c-0.74,0.98-1.49,1.96-2.21,2.96c-0.16,0.22-0.27,0.54-0.27,0.81c-0.02,1.97-0.01,3.94-0.01,5.91c0,0.17,0.01,0.34,0.02,0.5
		c3.07,0,6.08,0,9.12,0c0-1.43,0.01-2.81,0-4.2c0-0.44,0.03-0.85,0.52-1.05c0.49-0.2,0.79,0.11,1.07,0.43C57,51.73,57,53.7,57,55.67
		z M15.32,54.57c9.83,0,19.58,0,29.32,0c0-1.54,0-3.04,0-4.54c-9.79,0-19.53,0-29.32,0c0,0.21,0,0.38,0,0.56
		C15.32,51.9,15.32,53.22,15.32,54.57z M36.77,43.88c0-0.84-0.07-1.66,0.02-2.45c0.12-1.18-0.46-1.9-1.38-2.45
		c-0.44-0.26-0.89-0.49-1.36-0.68c-0.13-0.05-0.38,0.01-0.49,0.11c-2.28,2.12-5.01,2.16-7.31,0.08c-0.1-0.09-0.27-0.17-0.39-0.14
		c-1.66,0.4-2.62,1.61-2.62,3.3c0,0.75,0,1.5,0,2.24c2.27-0.05,4.02,1.94,3.05,4.5c2.48,0,4.94,0,7.42,0
		C32.79,45.96,34.34,43.88,36.77,43.88z M26.4,32.55c0,0.87-0.02,1.69,0,2.51c0.05,1.76,1.34,3.12,3.13,3.35
		c1.58,0.2,3.27-0.87,3.62-2.5c0.24-1.08,0.18-2.22,0.25-3.36C31.01,32.55,28.75,32.55,26.4,32.55z M47.4,31.41
		c0.77,0.08,1.36-0.16,1.92-0.56c0.66-0.48,1.28-0.17,1.36,0.65c0.03,0.3,0.06,0.6,0.12,0.89c0.34,1.79,1.43,2.53,3.19,2.15
		c0.14-0.03,0.33-0.25,0.34-0.39c0.03-1.25,0.03-2.5,0.01-3.75c-0.02-0.94-0.68-1.62-1.59-1.64c-1.26-0.03-2.53-0.02-3.79,0
		c-0.79,0.02-1.45,0.6-1.53,1.34C47.36,30.51,47.4,30.94,47.4,31.41z M12.63,31.4c0-0.37,0.01-0.68,0-1
		c-0.03-0.99-0.68-1.64-1.67-1.65c-1.19-0.01-2.39-0.01-3.58,0c-0.96,0.01-1.65,0.64-1.68,1.6c-0.03,1.27-0.02,2.53,0,3.8
		c0,0.12,0.1,0.32,0.2,0.36c1.15,0.48,2.57-0.07,3.04-1.24c0.21-0.53,0.25-1.13,0.41-1.68c0.09-0.31,0.22-0.68,0.45-0.87
		c0.32-0.26,0.68-0.05,1,0.19C11.31,31.3,11.89,31.49,12.63,31.4z M5.91,36.16c0.11,0.22,0.17,0.38,0.26,0.53
		c0.67,1.17,2.06,1.88,3.32,1.72c1.47-0.19,2.69-1.13,2.98-2.52c0.19-0.91,0.15-1.88,0.21-2.79c-0.7-0.12-1.3-0.22-1.92-0.32
		C10.17,35.3,8.59,36.47,5.91,36.16z M47.39,33.09c0,0.64-0.03,1.31,0.01,1.97c0.07,1.5,0.84,2.55,2.21,3.12
		c1.77,0.72,3.95-0.27,4.43-2.01c-2.62,0.3-4.2-0.87-4.78-3.39C48.63,32.88,48.03,32.98,47.39,33.09z M33.3,30.93
		c0-0.72,0-1.43,0-2.17c-1.85,0-3.65-0.05-5.46,0.02c-1.06,0.04-1.66,1.06-1.37,2.15C28.72,30.93,30.97,30.93,33.3,30.93z"/>
	<path d="M30.4,10.09c0.28,0,0.48,0,0.69,0c4.18,0,8.36-0.01,12.55,0c2.02,0,3.53,1.19,3.92,3.07c0.06,0.29,0.07,0.59,0.07,0.89
		c0.01,2.43,0.01,4.86,0,7.29c0,1.88-0.9,3.17-2.67,3.81c-0.26,0.09-0.35,0.22-0.34,0.49c0.02,0.79,0,1.58,0.01,2.38
		c0,0.44-0.01,0.87-0.49,1.07c-0.48,0.2-0.79-0.07-1.1-0.39c-0.98-0.99-1.97-1.96-2.94-2.96c-0.28-0.28-0.55-0.42-0.96-0.41
		c-1.19,0.03-2.39,0.01-3.58,0.01c-0.61,0-0.98-0.31-0.98-0.8c0-0.48,0.37-0.78,0.98-0.79c1.41,0,2.81-0.03,4.22,0.02
		c0.33,0.01,0.71,0.18,0.96,0.4c0.65,0.57,1.23,1.21,1.84,1.82c0.12,0.12,0.25,0.23,0.47,0.43c0-0.66-0.01-1.2,0-1.74
		c0.01-0.64,0.24-0.87,0.89-0.93c1.26-0.12,2.1-1.01,2.11-2.27c0.01-2.52,0.01-5.04,0-7.55c-0.01-1.28-0.89-2.24-2.16-2.25
		c-4.43-0.02-8.86-0.01-13.28-0.01c-0.03,0-0.07,0.01-0.19,0.04c0,0.16,0,0.35,0,0.53c0,1.62-0.03,3.24,0.01,4.86
		c0.08,3.36-2.58,5.33-5.02,5.18c-0.08-0.01-0.17,0.01-0.25,0.02c0.22,0.86,1.03,1.44,2.04,1.44c1.46,0.01,2.92,0,4.38,0
		c0.66,0,1.02,0.28,1.01,0.8c0,0.51-0.36,0.79-1.03,0.79c-1.42,0-2.85,0.01-4.27,0c-1.81-0.01-3.17-0.98-3.75-2.69
		c-0.1-0.29-0.23-0.37-0.52-0.37c-3.43,0.01-6.85,0-10.28,0.02c-0.21,0-0.47,0.14-0.62,0.29c-1.05,1.02-2.07,2.06-3.1,3.1
		C8.7,26,8.37,26.23,7.93,26.04c-0.44-0.19-0.5-0.59-0.49-1.02c0.01-0.91,0-1.83,0-2.77c-0.14-0.04-0.25-0.07-0.36-0.1
		c-2.17-0.59-3.62-2.42-3.64-4.68c-0.02-2.94-0.02-5.88,0-8.82c0.02-2.74,2.13-4.84,4.87-4.84c5.73-0.01,11.46-0.01,17.18,0
		c2.76,0,4.82,2.05,4.9,4.82C30.42,9.08,30.4,9.54,30.4,10.09z M9.03,23.25c0.04,0.03,0.08,0.06,0.13,0.09
		c0.7-0.71,1.41-1.41,2.08-2.14c0.34-0.37,0.72-0.5,1.21-0.5c4.32,0.01,8.65,0.01,12.97,0.01c2.04,0,3.4-1.36,3.4-3.42
		c0.01-2.83,0.01-5.67,0-8.5c-0.01-2.01-1.38-3.39-3.39-3.39c-5.68-0.01-11.35-0.01-17.03,0c-2.01,0-3.38,1.39-3.38,3.39
		c-0.01,2.83-0.01,5.67,0,8.5c0,1.95,1.21,3.25,3.14,3.42c0.59,0.05,0.85,0.32,0.86,0.91C9.03,22.16,9.03,22.71,9.03,23.25z"/>
	<path d="M16.89,13.84c-2.37,0-4.74,0-7.12,0c-0.41,0-0.73-0.1-0.9-0.5c-0.19-0.45,0.07-0.94,0.57-1.05
		c0.19-0.04,0.38-0.03,0.58-0.03c4.6,0,9.21,0,13.81,0c0.12,0,0.25-0.01,0.37,0c0.49,0.04,0.83,0.36,0.83,0.79
		c0,0.45-0.35,0.79-0.87,0.79C21.74,13.84,19.31,13.84,16.89,13.84z"/>
	<path d="M16.94,8.11c2.35,0,4.71,0,7.06,0c0.66,0,1.03,0.29,1.03,0.78c0,0.49-0.38,0.79-1.04,0.79c-4.73,0-9.45,0-14.18,0
		c-0.58,0-0.91-0.23-0.99-0.67c-0.09-0.5,0.29-0.9,0.89-0.91c1.93-0.01,3.86,0,5.8,0C15.99,8.11,16.46,8.11,16.94,8.11z"/>
	<path d="M13.28,16.44c1.14,0,2.28,0,3.42,0c0.65,0,0.98,0.26,0.99,0.76c0.02,0.52-0.33,0.82-0.99,0.82c-2.31,0.01-4.63,0-6.94,0
		c-0.42,0-0.82-0.12-0.89-0.57c-0.04-0.26,0.09-0.61,0.26-0.83c0.12-0.15,0.44-0.18,0.68-0.18C10.97,16.43,12.13,16.44,13.28,16.44z
		"/>
</g>
</svg>
