<?xml version="1.0" encoding="utf-8"?>
<!-- Generator: Adobe Illustrator 26.0.1, SVG Export Plug-In . SVG Version: 6.00 Build 0)  -->
<svg version="1.1" id="Layer_1" xmlns="http://www.w3.org/2000/svg" xmlns:xlink="http://www.w3.org/1999/xlink" x="0px" y="0px"
	 viewBox="0 0 60 60" style="enable-background:new 0 0 60 60;" xml:space="preserve">
<g>
	<path d="M3,26.1c2.59-4.48,5.19-8.96,7.78-13.45c0.52-0.89,0.81-0.98,1.68-0.47c2.51,1.44,5.02,2.89,7.53,4.34
		c0.98,0.57,1.06,0.85,0.48,1.85c-0.08,0.14-0.15,0.27-0.26,0.47c0.59,0.3,1.16,0.59,1.74,0.87c0.58,0.29,1.16,0.58,1.8,0.89
		c0.33-0.39,0.68-0.78,1-1.19c1.12-1.44,2.58-2.06,4.4-2.04c3.3,0.04,6.61,0.01,9.83,0.01c0.39-0.31,0.75-0.66,1.16-0.9
		c2.47-1.45,4.95-2.87,7.43-4.3c0.81-0.47,1.14-0.38,1.62,0.44c2.51,4.35,5.02,8.7,7.53,13.04c0.45,0.79,0.36,1.14-0.41,1.59
		c-2.57,1.48-5.14,2.97-7.71,4.45c-0.85,0.49-1.15,0.4-1.65-0.45c-0.1-0.18-0.22-0.35-0.34-0.54c-0.12,0.06-0.21,0.11-0.3,0.17
		c-0.22,0.14-0.43,0.3-0.67,0.46c1.03,1.22,1.32,2.55,0.55,3.96c-0.76,1.39-2.03,1.85-3.63,1.65c-0.08,1.05-0.46,1.95-1.29,2.61
		c-0.82,0.64-1.77,0.81-2.79,0.63c-0.46,2.16-1.74,3.31-3.99,3.31c-0.03,0.23-0.04,0.46-0.08,0.68c-0.38,1.98-2.47,3.16-4.36,2.42
		c-0.41-0.16-0.63-0.08-0.89,0.22c-0.51,0.58-1.1,1.03-1.87,1.22c-1.85,0.47-3.67-0.68-4.05-2.56c-0.03-0.14-0.06-0.27-0.1-0.45
		c-0.94,0.08-1.82-0.09-2.56-0.69c-0.75-0.6-1.15-1.4-1.25-2.4c-1.26,0.1-2.35-0.24-3.13-1.26c-0.77-1-0.87-2.11-0.43-3.34
		c-1.15-0.34-2.02-1.01-2.43-2.18c-0.4-1.16-0.16-2.21,0.58-3.21c-0.31-0.17-0.6-0.33-0.88-0.49c-0.76,0.67-0.86,0.68-1.75,0.16
		c-2.51-1.45-5.02-2.89-7.52-4.35C3.47,27.1,3.25,26.84,3,26.63C3,26.45,3,26.28,3,26.1z M28.73,39.56c0.91-1.05,0.99-1.05,2.1-0.29
		c1.08,0.75,2.16,1.5,3.27,2.21c0.87,0.56,1.83,0.27,2.39-0.65c0.5-0.82,0.28-1.52-0.66-2.11c-1.28-0.8-2.57-1.58-3.86-2.37
		c-0.18-0.11-0.37-0.21-0.54-0.33c-0.41-0.29-0.52-0.76-0.29-1.15c0.23-0.39,0.7-0.51,1.15-0.29c0.14,0.07,0.27,0.16,0.41,0.24
		c1.87,1.14,3.74,2.29,5.62,3.43c1.08,0.65,2.32,0.13,2.51-1.06c0.12-0.77-0.25-1.31-0.89-1.71c-2.08-1.27-4.17-2.54-6.25-3.82
		c-0.13-0.08-0.27-0.16-0.4-0.26c-0.37-0.28-0.47-0.75-0.24-1.12c0.23-0.38,0.67-0.51,1.1-0.31c0.16,0.07,0.31,0.17,0.46,0.26
		c2.55,1.56,5.09,3.12,7.64,4.67c0.98,0.6,1.93,0.45,2.45-0.37c0.51-0.81,0.21-1.77-0.75-2.36c-4.12-2.52-8.24-5.04-12.36-7.56
		c-1.24-0.76-2.37-0.58-3.35,0.49c-0.74,0.82-1.46,1.66-2.24,2.45c-1.5,1.51-3.9,1.35-5.2-0.31c-0.99-1.27-0.98-1.98,0.04-3.2
		c0.1-0.12,0.21-0.24,0.31-0.36c0.49-0.59,0.98-1.17,1.49-1.78c-1.13-0.56-2.19-1.09-3.28-1.63c-1.87,3.23-3.7,6.42-5.56,9.64
		c0.28,0.15,0.53,0.25,0.74,0.41c0.41,0.31,0.7,0.26,1.11-0.1c1.73-1.52,4.38-0.84,5.21,1.31c0.06,0.14,0.11,0.29,0.18,0.48
		c1.2-0.44,2.33-0.35,3.35,0.43c1.02,0.78,1.36,1.87,1.27,3.13c0.98,0.12,1.78,0.5,2.39,1.26C28.64,37.62,28.8,38.51,28.73,39.56z
		 M45.74,29.22c-0.03-0.09-0.05-0.16-0.08-0.22c-1.83-3.18-3.66-6.36-5.51-9.52c-0.09-0.16-0.39-0.28-0.59-0.29
		c-3.6-0.06-7.2-0.1-10.8-0.13c-0.96-0.01-1.78,0.35-2.41,1.09c-1.45,1.72-2.89,3.44-4.35,5.15c-0.2,0.24-0.18,0.41-0.05,0.65
		c0.61,1.13,2.02,1.32,2.93,0.36c0.73-0.76,1.42-1.56,2.13-2.34c1.56-1.69,3.53-1.96,5.51-0.76c0.94,0.57,1.89,1.15,2.83,1.73
		c2.8,1.71,5.6,3.43,8.4,5.13c0.15,0.09,0.42,0.16,0.54,0.09C44.78,29.89,45.25,29.55,45.74,29.22z M12.02,13.87
		C9.66,17.97,7.33,21.99,5,26.04c2.29,1.32,4.53,2.62,6.82,3.94c2.35-4.07,4.68-8.1,7.02-12.16C16.55,16.49,14.31,15.2,12.02,13.87z
		 M48.18,29.99c2.3-1.33,4.55-2.63,6.82-3.94c-2.36-4.08-4.68-8.1-7.02-12.16c-2.3,1.32-4.54,2.62-6.82,3.94
		C43.51,21.9,45.84,25.93,48.18,29.99z M19.05,40.25c0.19-0.11,0.6-0.26,0.92-0.54c0.54-0.47,1.03-1.01,1.54-1.52
		c0.68-0.68,1.38-1.35,2.04-2.06c0.6-0.64,0.55-1.59-0.04-2.19c-0.58-0.59-1.55-0.68-2.15-0.11c-1.29,1.24-2.56,2.51-3.8,3.8
		c-0.47,0.49-0.49,1.12-0.2,1.72C17.64,39.95,18.15,40.23,19.05,40.25z M21.01,41.53c0.05,0.9,0.35,1.41,0.98,1.67
		c0.64,0.27,1.25,0.17,1.75-0.32c0.96-0.93,1.9-1.87,2.83-2.83c0.65-0.67,0.63-1.64,0.01-2.27c-0.63-0.63-1.6-0.64-2.27,0.01
		c-0.96,0.93-1.91,1.86-2.82,2.84C21.22,40.91,21.11,41.34,21.01,41.53z M30.14,42.99c-0.04-0.91-0.33-1.42-0.96-1.69
		c-0.64-0.28-1.25-0.18-1.76,0.3c-0.71,0.68-1.4,1.37-2.08,2.08c-0.66,0.68-0.66,1.63-0.03,2.27c0.64,0.65,1.61,0.66,2.31-0.01
		c0.69-0.67,1.39-1.34,2.04-2.05C29.92,43.59,30.05,43.18,30.14,42.99z M19.39,32.94c-0.04-0.92-0.35-1.42-0.97-1.68
		C17.8,31,17.2,31.08,16.7,31.54c-0.48,0.44-0.93,0.9-1.38,1.37c-0.65,0.68-0.66,1.63-0.04,2.27c0.63,0.65,1.61,0.66,2.31,0
		c0.45-0.42,0.91-0.84,1.29-1.31C19.14,33.55,19.29,33.13,19.39,32.94z M31.77,42.05c0.19,1.17-0.09,2.15-0.85,3.01
		c0.88,0.09,1.52-0.29,1.77-1.01C32.95,43.28,32.66,42.56,31.77,42.05z"/>
</g>
</svg>
